<svg width="132" height="132" viewBox="0 0 132 132" fill="none" xmlns="http://www.w3.org/2000/svg">
<path fill-rule="evenodd" clip-rule="evenodd" d="M19.25 56.7477C19.25 31.4484 40.3913 11 65.964 11C91.6087 11 112.75 31.4484 112.75 56.7477C112.75 69.4963 108.114 81.332 100.482 91.3637C92.0634 102.429 81.6869 112.071 70.007 119.638C67.3338 121.387 64.9213 121.519 61.9875 119.638C50.241 112.071 39.8645 102.429 31.5177 91.3637C23.8809 81.332 19.25 69.4963 19.25 56.7477ZM50.5683 58.1721C50.5683 66.6474 57.4841 73.3132 65.9639 73.3132C74.4493 73.3132 81.4317 66.6474 81.4317 58.1721C81.4317 49.7629 74.4493 42.7726 65.9639 42.7726C57.4841 42.7726 50.5683 49.7629 50.5683 58.1721Z" fill="#6A8D6F"/>
</svg>
